<svg width="25" height="25" viewBox="0 0 25 25" fill="none" xmlns="http://www.w3.org/2000/svg">
<g clip-path="url(#clip0_496_785)">
<path fill-rule="evenodd" clip-rule="evenodd" d="M7.53679 19.4391C8.03184 19.7003 8.58316 19.8367 9.14288 19.8365C11.0072 19.8365 12.5291 18.3535 12.5978 16.5052L12.6047 0H16.7227C16.7231 0.350565 16.7557 0.700354 16.82 1.04496H13.8048V1.04553H16.82H17.9234C17.9228 2.42689 18.4235 3.76154 19.3325 4.80166C19.3329 4.8021 19.3333 4.80254 19.3337 4.80299C20.261 5.40874 21.3449 5.73084 22.4525 5.72981V6.64696C22.8401 6.72999 23.241 6.7742 23.6532 6.7742V10.8933C21.5972 10.8957 19.5926 10.2511 17.9234 9.05078V17.4202C17.9234 21.5994 14.5229 25 10.343 25C9.30211 25.0003 8.27237 24.7855 7.31832 24.3692C6.36497 23.9533 5.50774 23.345 4.80027 22.5825C4.79975 22.5821 4.79925 22.5818 4.79872 22.5814C2.84393 21.2089 1.5625 18.9392 1.5625 16.3752C1.5625 12.1954 4.96305 8.79426 9.14289 8.79426C9.48468 8.79589 9.82596 8.82076 10.1644 8.8687V9.8438C10.1644 9.8438 10.1644 9.8438 10.1644 9.8438L10.1644 13.0732C10.1644 13.0732 10.1644 13.0732 10.1644 13.0732L10.1644 9.8438C10.1882 9.84334 10.2118 9.84252 10.2356 9.84169C10.2712 9.84046 10.3069 9.83922 10.343 9.83922C10.6848 9.84085 11.0261 9.86572 11.3645 9.91365V14.1181C11.0416 14.0168 10.6997 13.9578 10.343 13.9578C9.42511 13.9588 8.54511 14.324 7.89611 14.9731C7.24711 15.6222 6.88211 16.5023 6.8812 17.4202C6.88124 18.1452 7.11038 18.8516 7.53588 19.4386C7.53619 19.4388 7.53649 19.4389 7.53679 19.4391ZM11.9569 20.4815C13.0169 19.9191 13.7509 18.8207 13.7985 17.5496V17.5502C13.7509 18.8209 13.0169 19.9191 11.9569 20.4815ZM9.1432 12.9128C9.35513 12.9128 9.562 12.9336 9.76294 12.9718C9.55888 12.9333 9.35144 12.9135 9.1432 12.9128ZM6.69618 13.9279C6.69617 13.9279 6.69618 13.9279 6.69618 13.9279V13.9279ZM3.26265 20.1249C3.61445 21.0414 4.13948 21.873 4.79705 22.5796C4.12609 21.8616 3.60799 21.0266 3.26265 20.1249ZM9.1429 23.955C9.14289 23.955 9.1429 23.955 9.1429 23.955V23.955ZM16.7227 16.3747V8.00525C16.7227 8.00524 16.7227 8.00525 16.7227 8.00525V16.3747Z" fill="#4141C1"/>
</g>
<defs>
<clipPath id="clip0_496_785">
<rect width="25" height="25" fill="white"/>
</clipPath>
</defs>
</svg>
